<svg width="50" height="45" viewBox="0 0 50 45" fill="none" xmlns="http://www.w3.org/2000/svg">
<path d="M37.7328 1.1347C46.8188 0.620084 50.1763 11.268 49 18.8609C48.3679 22.9406 44.814 28.287 40 33C33.8551 39.016 26.2335 44 26.2335 44C26.2335 44 17.4778 39.3628 10.5 33C5.63563 28.5643 1.89233 22.9741 1.5 18.8609C0.719854 10.6819 6.11631 -1.36626 15.5008 1.1347C22.5 2.99997 26.2335 9.83667 26.2335 9.83667C26.2335 9.83667 30.5 1.54435 37.7328 1.1347Z" stroke="#574A1E"/>
<path d="M37 3.49997C42.525 3.37044 46 9.49961 46 14" stroke="#574A1E" stroke-linecap="round"/>
<path d="M36 3.49997C36 3.77611 35.7761 3.99997 35.5 3.99997C35.2239 3.99997 35 3.77611 35 3.49997C35 3.22382 35.2239 2.99997 35.5 2.99997C35.7761 2.99997 36 3.22382 36 3.49997Z" fill="#574A1E"/>
</svg>
