<svg width="44" height="56" viewBox="0 0 44 56" fill="none" xmlns="http://www.w3.org/2000/svg">
<path d="M9.81806 30.9634C9.52801 30.9634 9.23797 30.8157 9.00593 30.5203L1.17469 20.55C-0.391562 18.5559 -0.391562 15.3802 1.17469 13.3861L10.5142 1.49555C12.0804 -0.498516 14.5748 -0.498516 16.1411 1.49555L23.9723 11.4659C24.4364 12.0567 24.4364 12.943 23.9723 13.5338L10.6302 30.5203C10.3982 30.8157 10.1081 30.9634 9.81806 30.9634ZM13.2986 2.97263C12.8925 2.97263 12.4285 3.1942 12.1384 3.56347L2.79894 15.454C2.16084 16.2664 2.16084 17.5958 2.79894 18.4082L9.81806 27.4184L21.5359 12.4998L14.5168 3.56347C14.1688 3.12034 13.7627 2.97263 13.2986 2.97263ZM30.7014 56C29.6572 56 28.6711 55.483 27.8589 54.5229L20.4337 45.0696C20.2017 44.7741 20.0857 44.4049 20.0857 44.0356C20.0857 43.6663 20.2017 43.2971 20.4337 43.0017L33.7759 26.0152C34.2399 25.4243 34.9361 25.4243 35.4001 26.0152L42.8253 35.4685C44.3916 37.4626 44.3916 40.6383 42.8253 42.6324L33.4858 54.5229C32.7317 55.5569 31.6875 56 30.7014 56ZM22.9281 44.0356L29.5412 52.455C30.1793 53.2674 31.2235 53.2674 31.8616 52.455L41.2011 40.5645C41.8392 39.7521 41.8392 38.4227 41.2011 37.6103L34.588 29.1909L22.9281 44.0356ZM21.2459 45.5127C20.9558 45.5127 20.6658 45.365 20.4337 45.0696L9.00593 30.5203C8.54186 29.9294 8.54186 29.0432 9.00593 28.4524L22.3481 11.4659C22.8121 10.875 23.5662 10.875 23.9723 11.4659L35.4001 26.0152C35.6322 26.3106 35.7482 26.6799 35.7482 27.0491C35.7482 27.4184 35.6322 27.7877 35.4001 28.0831L22.058 45.0696C21.884 45.365 21.5939 45.5127 21.2459 45.5127ZM11.4423 29.4863L21.2459 41.9677L32.9637 27.0491L23.1602 14.5678L11.4423 29.4863ZM18.0554 30.2987C18.2874 30.0033 18.4034 29.634 18.4034 29.2648C18.4034 28.8955 18.2874 28.5262 18.0554 28.2308C17.5913 27.64 16.8372 27.64 16.4311 28.2308C16.1991 28.5262 16.0831 28.8955 16.0831 29.2648C16.0831 29.634 16.1991 30.0033 16.4311 30.2987C16.6632 30.5941 16.9532 30.7418 17.2432 30.7418C17.5333 30.7418 17.8233 30.5941 18.0554 30.2987ZM23.7983 23.061C24.0303 22.7656 24.1463 22.3963 24.1463 22.027C24.1463 21.6578 24.0303 21.2885 23.7983 20.9931C23.3342 20.4022 22.5801 20.4022 22.174 20.9931C21.942 21.2885 21.826 21.6578 21.826 22.027C21.826 22.3963 21.942 22.7656 22.174 23.061C22.4061 23.3564 22.6961 23.5041 22.9862 23.5041C23.2762 23.5041 23.5662 23.2826 23.7983 23.061ZM22.116 35.5424C22.3481 35.2469 22.4641 34.8777 22.4641 34.5084C22.4641 34.1391 22.3481 33.7699 22.116 33.4744C21.6519 32.8836 20.8978 32.9575 20.4918 33.4744C20.2597 33.7699 20.1437 34.1391 20.1437 34.5084C20.1437 34.8777 20.2597 35.2469 20.4918 35.5424C20.7238 35.8378 21.0138 35.9855 21.3039 35.9855C21.5939 35.9855 21.884 35.8378 22.116 35.5424ZM27.8589 28.2308C28.091 27.9354 28.207 27.5661 28.207 27.1968C28.207 26.8276 28.091 26.4583 27.8589 26.1629C27.3949 25.572 26.6407 25.572 26.2347 26.1629C26.0026 26.4583 25.8866 26.8276 25.8866 27.1968C25.8866 27.5661 26.0026 27.9354 26.2347 28.2308C26.4667 28.5262 26.7568 28.6739 27.0468 28.6739C27.3368 28.6739 27.6849 28.5262 27.8589 28.2308Z" fill="black"/>
</svg>
