<svg width="35" height="42" viewBox="0 0 35 42" fill="none" xmlns="http://www.w3.org/2000/svg">
<path d="M19.3288 1.10632L19.8288 1.09784C19.8242 0.82939 19.6085 0.612461 19.34 0.606449C19.0716 0.600437 18.8464 0.807489 18.8298 1.07546L19.3288 1.10632ZM34.1173 30.572L33.8438 30.9906C34.0043 31.0955 34.2106 31.0993 34.3749 31.0005C34.5392 30.9017 34.6326 30.7176 34.6152 30.5267L34.1173 30.572ZM24.1519 7.75136L24.5107 7.40315L24.1519 7.75136ZM30.1568 14.1158L29.7759 14.4397L29.8048 14.4737L29.8393 14.502L30.1568 14.1158ZM0.80336 22.8192L1.2336 22.5645C1.09681 22.3334 0.801982 22.2517 0.565749 22.3793C0.329517 22.5069 0.236221 22.7982 0.354417 23.0393L0.80336 22.8192ZM28.2343 41.1077L28.2038 41.6067C28.3951 41.6185 28.5763 41.5197 28.6702 41.3525C28.7641 41.1854 28.7542 40.9792 28.6446 40.8219L28.2343 41.1077ZM8.28259 26.2073L8.14307 26.6874L8.14307 26.6874L8.28259 26.2073ZM16.6501 28.7668L16.4793 29.2367L16.5212 29.252L16.5652 29.2595L16.6501 28.7668ZM19.3288 1.10632C18.8298 1.07546 18.8298 1.0757 18.8298 1.07595C18.8298 1.07607 18.8297 1.07635 18.8297 1.07659C18.8297 1.07706 18.8297 1.07763 18.8296 1.0783C18.8295 1.07964 18.8294 1.08137 18.8293 1.0835C18.8291 1.08775 18.8288 1.09356 18.8284 1.10094C18.8277 1.11569 18.8268 1.13666 18.8259 1.16376C18.824 1.21796 18.822 1.29667 18.8213 1.39911C18.8198 1.60399 18.8235 1.90382 18.8435 2.29238C18.8835 3.06951 18.9887 4.20154 19.2483 5.63873C19.7675 8.5136 20.9042 12.6073 23.3707 17.5217L24.2644 17.0731C21.8432 12.2489 20.7355 8.247 20.2323 5.461C19.9807 4.06775 19.8801 2.97801 19.8422 2.24098C19.8232 1.87246 19.8199 1.59211 19.8212 1.40608C19.8219 1.31307 19.8237 1.24365 19.8253 1.19857C19.826 1.17603 19.8268 1.15959 19.8273 1.14932C19.8275 1.14419 19.8277 1.1406 19.8278 1.13858C19.8279 1.13756 19.8279 1.13694 19.8279 1.13671C19.8279 1.13659 19.8279 1.13657 19.8279 1.13665C19.8279 1.13669 19.8279 1.13682 19.8279 1.13684C19.8279 1.137 19.8279 1.13718 19.3288 1.10632ZM23.3707 17.5217C25.8371 22.4361 28.4402 25.7938 30.435 27.9281C31.4322 28.9951 32.277 29.7559 32.8763 30.2524C33.1758 30.5006 33.414 30.6828 33.5792 30.804C33.6617 30.8647 33.726 30.9101 33.7706 30.941C33.7929 30.9564 33.8103 30.9682 33.8225 30.9765C33.8287 30.9806 33.8335 30.9838 33.8371 30.9862C33.8388 30.9874 33.8403 30.9883 33.8414 30.989C33.842 30.9894 33.8424 30.9897 33.8428 30.99C33.843 30.9901 33.8433 30.9903 33.8434 30.9903C33.8436 30.9905 33.8438 30.9906 34.1173 30.572C34.3907 30.1535 34.3909 30.1536 34.391 30.1536C34.391 30.1536 34.3911 30.1537 34.3912 30.1537C34.3912 30.1538 34.3912 30.1538 34.3911 30.1537C34.3909 30.1536 34.3904 30.1532 34.3896 30.1527C34.3879 30.1516 34.3849 30.1496 34.3806 30.1467C34.3721 30.141 34.3585 30.1317 34.3399 30.1189C34.3029 30.0932 34.2461 30.0532 34.1711 29.9981C34.0212 29.888 33.7984 29.7178 33.5143 29.4824C32.946 29.0115 32.1323 28.2797 31.1656 27.2453C29.2324 25.177 26.6857 21.8974 24.2644 17.0731L23.3707 17.5217ZM19.3288 1.10632C18.8289 1.11481 18.8289 1.11549 18.8289 1.11617C18.8289 1.11641 18.829 1.1171 18.829 1.11758C18.829 1.11853 18.829 1.1195 18.829 1.12049C18.8291 1.12249 18.8292 1.12458 18.8292 1.12677C18.8294 1.13114 18.8296 1.13592 18.83 1.14108C18.8306 1.15142 18.8315 1.16335 18.8329 1.1769C18.8356 1.204 18.8401 1.2376 18.8474 1.27803C18.862 1.35885 18.8878 1.46708 18.9331 1.6055C19.0236 1.88188 19.1929 2.28141 19.5103 2.82747C20.1438 3.9178 21.3786 5.61152 23.7931 8.09956L24.5107 7.40315C22.1311 4.95099 20.9543 3.32218 20.3749 2.32505C20.0857 1.82738 19.9482 1.49195 19.8834 1.29428C19.8512 1.19569 19.8372 1.13213 19.8315 1.10042C19.8286 1.08459 19.8278 1.07673 19.8278 1.07645C19.8278 1.07631 19.828 1.07806 19.8282 1.08164C19.8283 1.08344 19.8284 1.08569 19.8285 1.08839C19.8286 1.08974 19.8286 1.0912 19.8287 1.09278C19.8287 1.09357 19.8287 1.09438 19.8287 1.09523C19.8287 1.09565 19.8287 1.0963 19.8287 1.09651C19.8288 1.09717 19.8288 1.09784 19.3288 1.10632ZM33.2287 21.2219C33.1844 23.2957 33.2825 25.6461 33.3909 27.4724C33.4452 28.3867 33.5022 29.1722 33.5457 29.7293C33.5675 30.0079 33.5858 30.2295 33.5988 30.3816C33.6052 30.4577 33.6103 30.5164 33.6139 30.5562C33.6156 30.5761 33.617 30.5913 33.6179 30.6015C33.6183 30.6067 33.6187 30.6106 33.6189 30.6132C33.6191 30.6145 33.6191 30.6155 33.6192 30.6162C33.6192 30.6166 33.6193 30.6169 33.6193 30.617C33.6193 30.6171 33.6193 30.6172 33.6193 30.6173C33.6193 30.6173 33.6193 30.6174 34.1173 30.572C34.6152 30.5267 34.6152 30.5267 34.6152 30.5267C34.6152 30.5266 34.6152 30.5266 34.6152 30.5265C34.6152 30.5264 34.6151 30.5262 34.6151 30.5259C34.6151 30.5253 34.615 30.5244 34.6149 30.5232C34.6147 30.5208 34.6143 30.5171 34.6139 30.5123C34.613 30.5025 34.6117 30.4878 34.61 30.4684C34.6066 30.4295 34.6015 30.3718 34.5952 30.2968C34.5824 30.1468 34.5642 29.9276 34.5427 29.6515C34.4996 29.0993 34.443 28.3201 34.3892 27.4131C34.2813 25.5966 34.1851 23.2773 34.2285 21.2432L33.2287 21.2219ZM23.7931 8.09956C26.1882 10.5677 27.6866 12.1559 28.5853 13.126C29.0347 13.611 29.3338 13.9412 29.52 14.1494C29.6131 14.2535 29.6778 14.327 29.7189 14.374C29.7395 14.3975 29.7541 14.4144 29.7634 14.4252C29.7681 14.4306 29.7714 14.4345 29.7734 14.4368C29.7745 14.438 29.7752 14.4389 29.7756 14.4393C29.7758 14.4396 29.7759 14.4397 29.7759 14.4398C29.776 14.4398 29.776 14.4398 29.776 14.4398C29.776 14.4398 29.7759 14.4398 29.7759 14.4398C29.7759 14.4397 29.7759 14.4397 30.1568 14.1158C30.5377 13.792 30.5377 13.7919 30.5377 13.7919C30.5376 13.7918 30.5376 13.7918 30.5375 13.7917C30.5375 13.7916 30.5373 13.7915 30.5372 13.7913C30.537 13.7911 30.5366 13.7907 30.5362 13.7902C30.5354 13.7893 30.5343 13.788 30.5329 13.7863C30.5301 13.783 30.526 13.7783 30.5206 13.772C30.5099 13.7595 30.4938 13.741 30.4719 13.7159C30.4281 13.6658 30.3608 13.5894 30.2654 13.4828C30.0747 13.2696 29.7716 12.935 29.3189 12.4464C28.4137 11.4693 26.9097 9.87526 24.5107 7.40315L23.7931 8.09956ZM30.1568 14.1158C29.8393 14.502 29.8391 14.5019 29.839 14.5019C29.839 14.5018 29.8389 14.5018 29.8389 14.5018C29.8388 14.5017 29.8388 14.5017 29.8389 14.5017C29.839 14.5018 29.8393 14.5021 29.8398 14.5025C29.8409 14.5034 29.8428 14.505 29.8456 14.5073C29.8511 14.5119 29.8599 14.5194 29.8718 14.5297C29.8956 14.5502 29.9318 14.5818 29.9786 14.6241C30.0722 14.7086 30.2078 14.8356 30.3713 15.0013C30.6989 15.3332 31.1353 15.8175 31.5687 16.4243C32.4404 17.6449 33.2693 19.3185 33.2287 21.2219L34.2285 21.2432C34.2755 19.0387 33.3185 17.1539 32.3825 15.8431C31.9119 15.1842 31.439 14.6596 31.0831 14.2989C30.9049 14.1184 30.7554 13.9782 30.6492 13.8822C30.596 13.8342 30.5537 13.7972 30.524 13.7716C30.5091 13.7588 30.4974 13.7489 30.489 13.7418C30.4849 13.7383 30.4815 13.7356 30.4791 13.7335C30.4779 13.7325 30.4768 13.7317 30.4761 13.731C30.4757 13.7307 30.4753 13.7304 30.475 13.7302C30.4749 13.7301 30.4747 13.7299 30.4747 13.7299C30.4745 13.7297 30.4744 13.7296 30.1568 14.1158ZM0.80336 22.8192C0.354417 23.0393 0.354519 23.0395 0.354632 23.0397C0.354684 23.0399 0.354808 23.0401 0.354913 23.0403C0.355122 23.0407 0.355375 23.0413 0.355672 23.0419C0.356267 23.0431 0.357038 23.0446 0.357988 23.0465C0.359887 23.0503 0.362499 23.0555 0.365837 23.0621C0.372514 23.0753 0.382094 23.094 0.394683 23.118C0.41986 23.166 0.457069 23.2354 0.507136 23.3248C0.607272 23.5035 0.758848 23.7623 0.968487 24.09C1.38777 24.7456 2.03929 25.6773 2.97599 26.7978C4.84971 29.0391 7.86307 32.0341 12.4381 35.0843L12.9928 34.2523C8.50171 31.258 5.55902 28.3284 3.74322 26.1564C2.83516 25.0701 2.20856 24.1729 1.81091 23.5512C1.61208 23.2403 1.47049 22.9984 1.37957 22.8361C1.33411 22.7549 1.30133 22.6937 1.28039 22.6537C1.26992 22.6338 1.26241 22.6191 1.25776 22.6099C1.25544 22.6054 1.25383 22.6021 1.25293 22.6003C1.25247 22.5994 1.2522 22.5989 1.25209 22.5987C1.25204 22.5986 1.25203 22.5985 1.25207 22.5986C1.25209 22.5986 1.25214 22.5988 1.25215 22.5988C1.25222 22.5989 1.2523 22.5991 0.80336 22.8192ZM12.4381 35.0843C17.0132 38.1345 20.9366 39.7644 23.7262 40.6321C25.1207 41.0659 26.2313 41.309 26.9977 41.444C27.3809 41.5114 27.678 41.5519 27.8815 41.5755C27.9833 41.5874 28.0616 41.5951 28.1156 41.5998C28.1427 41.6022 28.1636 41.6039 28.1783 41.605C28.1857 41.6055 28.1915 41.6059 28.1957 41.6062C28.1978 41.6064 28.1996 41.6065 28.2009 41.6066C28.2016 41.6066 28.2022 41.6066 28.2026 41.6067C28.2029 41.6067 28.2031 41.6067 28.2033 41.6067C28.2035 41.6067 28.2038 41.6067 28.2343 41.1077C28.2648 40.6086 28.265 40.6086 28.2652 40.6086C28.2652 40.6086 28.2653 40.6086 28.2654 40.6086C28.2654 40.6086 28.2654 40.6086 28.2653 40.6086C28.2651 40.6086 28.2645 40.6086 28.2634 40.6085C28.2614 40.6084 28.2578 40.6081 28.2527 40.6077C28.2425 40.607 28.2261 40.6057 28.2036 40.6037C28.1587 40.5997 28.0895 40.593 27.9971 40.5823C27.8124 40.5607 27.5345 40.5231 27.1711 40.4591C26.4443 40.3311 25.3751 40.0977 24.0232 39.6772C21.3199 38.8364 17.484 37.2465 12.9928 34.2523L12.4381 35.0843ZM0.80336 22.8192C0.373118 23.0739 0.373465 23.0745 0.373816 23.0751C0.373938 23.0753 0.374293 23.0759 0.374536 23.0763C0.375024 23.0771 0.375526 23.078 0.376043 23.0788C0.377077 23.0805 0.378171 23.0823 0.379327 23.0842C0.38164 23.0879 0.3842 23.0919 0.387025 23.0963C0.392675 23.1049 0.399381 23.1148 0.407275 23.1259C0.423064 23.1481 0.4436 23.1751 0.469945 23.2066C0.522611 23.2696 0.598572 23.3509 0.706457 23.4488C0.921859 23.6442 1.2667 23.9076 1.81264 24.2251C2.90272 24.8591 4.81379 25.72 8.14307 26.6874L8.42211 25.7272C5.14085 24.7737 3.31231 23.9405 2.31541 23.3607C1.81786 23.0713 1.53237 22.8479 1.37831 22.7081C1.30147 22.6384 1.25791 22.5901 1.23725 22.5654C1.22693 22.553 1.22235 22.5466 1.22218 22.5463C1.2221 22.5462 1.22312 22.5477 1.22508 22.5507C1.22606 22.5522 1.22728 22.5541 1.2287 22.5564C1.22942 22.5575 1.23018 22.5588 1.231 22.5601C1.23141 22.5608 1.23183 22.5615 1.23226 22.5622C1.23248 22.5626 1.23282 22.5631 1.23292 22.5633C1.23326 22.5639 1.2336 22.5645 0.80336 22.8192ZM22.8356 33.422C23.8233 35.2461 25.0716 37.2401 26.0694 38.7735C26.569 39.5412 27.0072 40.1955 27.3206 40.6582C27.4774 40.8895 27.603 41.0729 27.6895 41.1987C27.7328 41.2616 27.7663 41.3101 27.789 41.343C27.8004 41.3594 27.8091 41.3719 27.8149 41.3804C27.8179 41.3846 27.8201 41.3879 27.8216 41.39C27.8224 41.3911 27.823 41.392 27.8234 41.3925C27.8236 41.3928 27.8237 41.393 27.8238 41.3932C27.8239 41.3933 27.8239 41.3933 27.824 41.3934C27.824 41.3934 27.824 41.3935 28.2343 41.1077C28.6446 40.8219 28.6446 40.8219 28.6446 40.8219C28.6445 40.8219 28.6445 40.8218 28.6445 40.8218C28.6444 40.8217 28.6443 40.8215 28.6441 40.8213C28.6438 40.8208 28.6433 40.82 28.6426 40.819C28.6412 40.8171 28.6391 40.814 28.6363 40.81C28.6307 40.8019 28.6223 40.7898 28.6112 40.7738C28.589 40.7417 28.5561 40.6941 28.5134 40.6321C28.4281 40.508 28.3038 40.3265 28.1485 40.0972C27.8378 39.6387 27.4031 38.9896 26.9076 38.228C25.915 36.7028 24.6837 34.7349 23.715 32.9459L22.8356 33.422ZM8.14307 26.6874C11.4456 27.6471 13.5337 28.2859 14.7947 28.6842C15.4251 28.8833 15.8485 29.0223 16.1133 29.1111C16.2456 29.1555 16.3383 29.1873 16.3973 29.2078C16.4268 29.2181 16.4479 29.2255 16.4613 29.2303C16.468 29.2327 16.4728 29.2344 16.4758 29.2355C16.4772 29.236 16.4783 29.2364 16.4788 29.2366C16.4791 29.2367 16.4793 29.2367 16.4794 29.2368C16.4794 29.2368 16.4794 29.2368 16.4794 29.2368C16.4794 29.2368 16.4794 29.2368 16.4794 29.2368C16.4793 29.2367 16.4793 29.2367 16.6501 28.7668C16.8209 28.2969 16.8208 28.2969 16.8207 28.2968C16.8207 28.2968 16.8206 28.2968 16.8206 28.2968C16.8204 28.2967 16.8203 28.2967 16.8201 28.2966C16.8197 28.2965 16.8193 28.2963 16.8187 28.2961C16.8175 28.2957 16.8159 28.2951 16.8139 28.2944C16.8098 28.2929 16.8039 28.2908 16.7961 28.288C16.7806 28.2825 16.7574 28.2743 16.726 28.2634C16.6631 28.2415 16.5669 28.2084 16.4312 28.163C16.16 28.072 15.731 27.9312 15.0959 27.7306C13.8258 27.3294 11.7301 26.6884 8.42211 25.7272L8.14307 26.6874ZM16.6501 28.7668C16.5652 29.2595 16.5651 29.2595 16.5649 29.2595C16.5649 29.2595 16.5648 29.2595 16.5648 29.2595C16.5647 29.2595 16.5647 29.2595 16.5647 29.2595C16.5649 29.2595 16.5653 29.2596 16.5659 29.2597C16.5673 29.2599 16.5698 29.2604 16.5733 29.261C16.5804 29.2623 16.5917 29.2644 16.6071 29.2674C16.638 29.2735 16.6851 29.283 16.7467 29.2966C16.8698 29.3238 17.0506 29.3671 17.2746 29.4302C17.7235 29.5565 18.3424 29.7614 19.0192 30.0743C20.3807 30.7037 21.9291 31.7479 22.8356 33.422L23.715 32.9459C22.6651 31.0069 20.9009 29.8425 19.4388 29.1666C18.7039 28.8268 18.0333 28.6049 17.5456 28.4676C17.3014 28.3988 17.1021 28.351 16.9623 28.3202C16.8924 28.3047 16.8373 28.2935 16.7988 28.286C16.7795 28.2822 16.7644 28.2794 16.7537 28.2774C16.7484 28.2764 16.7441 28.2757 16.741 28.2751C16.7394 28.2748 16.7381 28.2746 16.7371 28.2744C16.7366 28.2743 16.7361 28.2743 16.7358 28.2742C16.7356 28.2742 16.7354 28.2741 16.7353 28.2741C16.7351 28.2741 16.7349 28.2741 16.6501 28.7668Z" fill="black"/>
</svg>
